<svg xmlns="http://www.w3.org/2000/svg" viewBox="0 0 1080 1350" role="img" aria-label="Raksha Bandhan festive poster background">
  <defs>
    <linearGradient id="paper" x1="0" y1="0" x2="1" y2="1">
      <stop offset="0" stop-color="#fffaf0"/>
      <stop offset=".42" stop-color="#ffe2b8"/>
      <stop offset="1" stop-color="#d43b2f"/>
    </linearGradient>
    <linearGradient id="thread" x1="0" y1="0" x2="1" y2="0">
      <stop offset="0" stop-color="#9f1239"/>
      <stop offset=".25" stop-color="#f59e0b"/>
      <stop offset=".5" stop-color="#b91c1c"/>
      <stop offset=".75" stop-color="#f59e0b"/>
      <stop offset="1" stop-color="#9f1239"/>
    </linearGradient>
    <radialGradient id="rakhi" cx=".5" cy=".45" r=".58">
      <stop offset="0" stop-color="#fff7ad"/>
      <stop offset=".38" stop-color="#f59e0b"/>
      <stop offset=".72" stop-color="#dc2626"/>
      <stop offset="1" stop-color="#7f1d1d"/>
    </radialGradient>
    <filter id="softShadow" x="-25%" y="-25%" width="150%" height="150%">
      <feDropShadow dx="0" dy="12" stdDeviation="12" flood-color="#7f1d1d" flood-opacity=".24"/>
    </filter>
    <pattern id="tiny" width="84" height="84" patternUnits="userSpaceOnUse">
      <circle cx="42" cy="42" r="3" fill="#b45309" opacity=".18"/>
      <path d="M42 15c9 14 17 20 31 27-14 7-22 14-31 27-9-13-17-20-31-27 14-7 22-13 31-27z" fill="none" stroke="#b45309" stroke-width="1.4" opacity=".12"/>
    </pattern>
  </defs>
  <rect width="1080" height="1350" fill="url(#paper)"/>
  <rect width="1080" height="1350" fill="url(#tiny)" opacity=".78"/>
  <rect x="52" y="48" width="976" height="1254" rx="54" fill="none" stroke="#fff7ed" stroke-width="8" opacity=".75"/>
  <rect x="78" y="74" width="924" height="1202" rx="42" fill="none" stroke="#8a1c1c" stroke-width="2.5" opacity=".28"/>
  <path d="M80 250 C230 164 373 158 452 192" fill="none" stroke="url(#thread)" stroke-width="18" stroke-linecap="round" filter="url(#softShadow)"/>
  <path d="M628 192 C707 158 850 164 1000 250" fill="none" stroke="url(#thread)" stroke-width="18" stroke-linecap="round" filter="url(#softShadow)"/>
  <path d="M88 286 C232 214 374 210 450 232" fill="none" stroke="#fff7ad" stroke-width="7" stroke-linecap="round" opacity=".92"/>
  <path d="M630 232 C706 210 848 214 992 286" fill="none" stroke="#fff7ad" stroke-width="7" stroke-linecap="round" opacity=".92"/>
  <g transform="translate(540 212)" filter="url(#softShadow)">
    <circle r="116" fill="#fff7ed" opacity=".82"/>
    <circle r="94" fill="url(#rakhi)"/>
    <circle r="60" fill="#facc15"/>
    <circle r="34" fill="#b91c1c"/>
    <circle r="14" fill="#fff7ed"/>
    <g fill="#fff7ed" opacity=".95">
      <circle cx="0" cy="-76" r="8"/>
      <circle cx="54" cy="-54" r="8"/>
      <circle cx="76" cy="0" r="8"/>
      <circle cx="54" cy="54" r="8"/>
      <circle cx="0" cy="76" r="8"/>
      <circle cx="-54" cy="54" r="8"/>
      <circle cx="-76" cy="0" r="8"/>
      <circle cx="-54" cy="-54" r="8"/>
    </g>
  </g>
  <g opacity=".24" fill="#7f1d1d">
    <path d="M145 405c34 50 83 78 147 83-33 53-82 84-148 92 34 54 32 112-7 174-37-49-86-77-150-82 33-54 81-84 146-92-33-56-29-114 12-175z"/>
    <path d="M935 405c-34 50-83 78-147 83 33 53 82 84 148 92-34 54-32 112 7 174 37-49 86-77 150-82-33-54-81-84-146-92 33-56 29-114-12-175z"/>
  </g>
  <g transform="translate(92 1112)" filter="url(#softShadow)">
    <ellipse cx="76" cy="72" rx="66" ry="34" fill="#7f1d1d"/>
    <ellipse cx="76" cy="58" rx="61" ry="30" fill="#f59e0b"/>
    <path d="M50 48C74-8 96 11 91 51c-12 13-28 13-41-3z" fill="#fff7ad"/>
    <path d="M67 45c11-29 20-18 17 4-5 6-12 5-17-4z" fill="#fb923c"/>
  </g>
  <g transform="translate(838 1112)" filter="url(#softShadow)">
    <ellipse cx="76" cy="72" rx="66" ry="34" fill="#7f1d1d"/>
    <ellipse cx="76" cy="58" rx="61" ry="30" fill="#f59e0b"/>
    <path d="M50 48C74-8 96 11 91 51c-12 13-28 13-41-3z" fill="#fff7ad"/>
    <path d="M67 45c11-29 20-18 17 4-5 6-12 5-17-4z" fill="#fb923c"/>
  </g>
</svg>
